<svg width="24" height="24" viewBox="0 0 24 24" fill="none" xmlns="http://www.w3.org/2000/svg">
<path d="M17.5029 7.60117C17.5029 5.85043 16.8074 4.1714 15.5695 2.93344C14.3315 1.69548 12.6525 1 10.9018 1C9.15102 1 7.47198 1.69548 6.23402 2.93344C4.99606 4.1714 4.30058 5.85043 4.30058 7.60117C4.30058 15.3025 1 17.5029 1 17.5029H20.8035C20.8035 17.5029 17.5029 15.3025 17.5029 7.60117Z" stroke="#1F243B" stroke-width="2" stroke-linecap="round" stroke-linejoin="round"/>
<path d="M12.8051 21.9037C12.6117 22.2372 12.334 22.5139 12 22.7063C11.666 22.8987 11.2872 23 10.9017 23C10.5163 23 10.1375 22.8987 9.80351 22.7063C9.46947 22.5139 9.19184 22.2372 8.99841 21.9037" stroke="#1F243B" stroke-width="2" stroke-linecap="round" stroke-linejoin="round"/>
<circle cx="18" cy="7" r="4.5" fill="#FF5050" stroke="white" stroke-width="3"/>
</svg>
