<svg xmlns="http://www.w3.org/2000/svg" width="94" height="46" fill="none">
  <path fill="#1F243B" d="M50.648 9.55c0 2.178 1.224 3.528 3.6 4.014l2.034.414c.882.18 1.224.558 1.224 1.296 0 .846-.828 1.368-2.142 1.368-1.296 0-2.016-.54-2.016-1.512H50.45c0 2.502 1.926 4.104 4.896 4.104 3.06 0 5.076-1.674 5.076-4.248 0-2.106-1.134-3.24-3.51-3.726l-1.998-.414c-.936-.198-1.35-.594-1.35-1.404 0-.882.756-1.422 1.944-1.422 1.098 0 1.8.576 1.8 1.512h2.898c0-2.52-1.8-4.104-4.662-4.104s-4.896 1.71-4.896 4.122Zm17.34.45v4.68c0 1.476-.485 2.088-1.673 2.088-1.134 0-1.638-.648-1.638-2.124V10h-2.772v5.652c0 2.214 1.26 3.582 3.312 3.582 1.08 0 2.196-.504 2.754-1.242L68.15 19h2.61v-9h-2.772Zm7.625 9v-4.932c0-1.116.702-1.836 1.8-1.836.954 0 1.584.738 1.584 1.872V19h2.772v-5.562c0-2.358-1.242-3.726-3.384-3.726-1.17 0-2.196.45-2.754 1.224L75.45 10h-2.61v9h2.772Zm14.12-9v4.68c0 1.476-.486 2.088-1.674 2.088-1.134 0-1.638-.648-1.638-2.124V10h-2.772v5.652c0 2.214 1.26 3.582 3.312 3.582 1.08 0 2.196-.504 2.754-1.242l.18 1.008h2.61v-9h-2.772ZM58.982 29.798V27.17h-4.68v-2.79h5.562v-2.7h-8.478V35h2.916v-5.202h4.68Zm1.367.684c0 2.844 2.088 4.734 4.968 4.734 2.862 0 4.95-1.89 4.95-4.734 0-2.844-2.088-4.752-4.95-4.752-2.88 0-4.968 1.908-4.968 4.752Zm2.79-.018c0-1.35.882-2.25 2.178-2.25 1.278 0 2.16.9 2.16 2.25 0 1.368-.882 2.268-2.16 2.268-1.296 0-2.178-.9-2.178-2.268Zm8.25.018c0 2.844 2.087 4.734 4.967 4.734 2.862 0 4.95-1.89 4.95-4.734 0-2.844-2.088-4.752-4.95-4.752-2.88 0-4.968 1.908-4.968 4.752Zm2.79-.018c0-1.35.881-2.25 2.177-2.25 1.278 0 2.16.9 2.16 2.25 0 1.368-.882 2.268-2.16 2.268-1.296 0-2.178-.9-2.178-2.268ZM86.46 35v-6.696h1.71V26h-1.71v-2.79h-2.77V26h-1.71v2.304h1.71V35h2.772Z"/>
  <g filter="url(#a)">
    <rect width="36" height="36" x="5" y="38" fill="url(#b)" rx="12" transform="rotate(-90 5 38)"/>
  </g>
  <path fill="#fff" d="M5 21.2v-3h36v3z"/>
  <circle cx="23" cy="20" r="5.4" fill="#fff" transform="rotate(-90 23 20)"/>
  <defs>
    <linearGradient id="b" x1="5" x2="41" y1="56" y2="56" gradientUnits="userSpaceOnUse">
      <stop stop-color="#009E2C"/>
      <stop offset="1" stop-color="#00DD3E"/>
    </linearGradient>
    <filter id="a" width="46" height="46" x="0" y="0" color-interpolation-filters="sRGB" filterUnits="userSpaceOnUse">
      <feFlood flood-opacity="0" result="BackgroundImageFix"/>
      <feColorMatrix in="SourceAlpha" result="hardAlpha" values="0 0 0 0 0 0 0 0 0 0 0 0 0 0 0 0 0 0 127 0"/>
      <feOffset dy="3"/>
      <feGaussianBlur stdDeviation="2.5"/>
      <feComposite in2="hardAlpha" operator="out"/>
      <feColorMatrix values="0 0 0 0 0 0 0 0 0 0.866667 0 0 0 0 0.243137 0 0 0 0.25 0"/>
      <feBlend in2="BackgroundImageFix" result="effect1_dropShadow_513_151"/>
      <feBlend in="SourceGraphic" in2="effect1_dropShadow_513_151" result="shape"/>
    </filter>
  </defs>
</svg>
