<svg width="43" height="31" viewBox="0 0 43 31" fill="none" xmlns="http://www.w3.org/2000/svg">
<path d="M0.648 4.55C0.648 6.728 1.872 8.078 4.248 8.564L6.282 8.978C7.164 9.158 7.506 9.536 7.506 10.274C7.506 11.12 6.678 11.642 5.364 11.642C4.068 11.642 3.348 11.102 3.348 10.13H0.45C0.45 12.632 2.376 14.234 5.346 14.234C8.406 14.234 10.422 12.56 10.422 9.986C10.422 7.88 9.288 6.746 6.912 6.26L4.914 5.846C3.978 5.648 3.564 5.252 3.564 4.442C3.564 3.56 4.32 3.02 5.508 3.02C6.606 3.02 7.308 3.596 7.308 4.532H10.206C10.206 2.012 8.406 0.428 5.544 0.428C2.682 0.428 0.648 2.138 0.648 4.55ZM17.9888 5V9.68C17.9888 11.156 17.5028 11.768 16.3148 11.768C15.1808 11.768 14.6768 11.12 14.6768 9.644V5H11.9048V10.652C11.9048 12.866 13.1648 14.234 15.2168 14.234C16.2968 14.234 17.4128 13.73 17.9708 12.992L18.1508 14H20.7608V5H17.9888ZM25.6129 14V9.068C25.6129 7.952 26.3149 7.232 27.4129 7.232C28.3669 7.232 28.9969 7.97 28.9969 9.104V14H31.7689V8.438C31.7689 6.08 30.5269 4.712 28.3849 4.712C27.2149 4.712 26.1889 5.162 25.6309 5.936L25.4509 5H22.8409V14H25.6129ZM39.7329 5V9.68C39.7329 11.156 39.2469 11.768 38.0589 11.768C36.9249 11.768 36.4209 11.12 36.4209 9.644V5H33.6489V10.652C33.6489 12.866 34.9089 14.234 36.9609 14.234C38.0409 14.234 39.1569 13.73 39.7149 12.992L39.8949 14H42.5049V5H39.7329ZM8.982 24.798V22.17H4.302V19.38H9.864V16.68H1.386V30H4.302V24.798H8.982ZM10.349 25.482C10.349 28.326 12.437 30.216 15.317 30.216C18.179 30.216 20.267 28.326 20.267 25.482C20.267 22.638 18.179 20.73 15.317 20.73C12.437 20.73 10.349 22.638 10.349 25.482ZM13.139 25.464C13.139 24.114 14.021 23.214 15.317 23.214C16.595 23.214 17.477 24.114 17.477 25.464C17.477 26.832 16.595 27.732 15.317 27.732C14.021 27.732 13.139 26.832 13.139 25.464ZM21.3881 25.482C21.3881 28.326 23.4761 30.216 26.3561 30.216C29.2181 30.216 31.3061 28.326 31.3061 25.482C31.3061 22.638 29.2181 20.73 26.3561 20.73C23.4761 20.73 21.3881 22.638 21.3881 25.482ZM24.1781 25.464C24.1781 24.114 25.0601 23.214 26.3561 23.214C27.6341 23.214 28.5161 24.114 28.5161 25.464C28.5161 26.832 27.6341 27.732 26.3561 27.732C25.0601 27.732 24.1781 26.832 24.1781 25.464ZM36.4613 30V23.304H38.1713V21H36.4613V18.21H33.6893V21H31.9793V23.304H33.6893V30H36.4613Z" fill="#1F243B"/>
</svg>
